#!OML:ASF H:\charlestonDancing\Project 1\Capture day 1\Session 1\femaleDancer.ASF
:FULLY-SPECIFIED
:DEGREES
291
root -1.39314 18.15 5.35528 528.567 -69.4191 -509.182
lowerback 19.7531 1.38196 4.57037
upperback 4.56328 2.34679 -0.0464737
thorax -5.89376 0.927719 -3.20072
lowerneck 4.77894 9.50427 6.97903
upperneck -12.8968 11.7887 -14.6863
head -3.23649 6.30213 -6.00135
rclavicle -1.15295e-014 -1.19271e-014
rhumerus -47.5587 -23.9986 -48.1861
rradius 85.3478
rwrist -57.4549
rhand -1.91536 -25.1485
rfingers 7.12502
rthumb 23.7546 -53.7003
lclavicle -1.15295e-014 -1.19271e-014
lhumerus -65.7213 17.8714 38.687
lradius 30.4556
lwrist -5.43185
lhand -22.9952 15.8183
lfingers 7.12502
lthumb 3.44772 45.7701
rfemur -22.7272 13.2685 23.7797
rtibia 29.4177
rfoot -24.7738 2.80151
rtoes -21.4324
lfemur -37.3301 0.638383 -12.0435
ltibia 34.7927
lfoot -13.2608 4.73101
ltoes -8.22921
292
root -1.32706 18.1289 5.30134 528.42 -70.216 -509.264
lowerback 19.8704 1.10383 4.63843
upperback 4.65234 1.99957 0.00224571
thorax -5.88789 0.758136 -3.10672
lowerneck 4.87233 10.4464 7.80923
upperneck -13.3339 13.0487 -15.6055
head -3.11004 6.95226 -6.41696
rclavicle -6.79844e-014 3.81667e-014
rhumerus -47.2278 -24.0974 -48.789
rradius 86.4487
rwrist -56.7119
rhand -2.98164 -25.7093
rfingers 7.12502
rthumb 22.7316 -54.3902
lclavicle -6.79844e-014 3.81667e-014
lhumerus -62.0814 16.9783 42.8439
lradius 35.0594
lwrist -1.3324
lhand -24.0102 15.8377
lfingers 7.12502
lthumb 2.46751 45.8032
rfemur -25.2846 13.3964 24.437
rtibia 29.6121
rfoot -24.8433 4.93687
rtoes -21.6698
lfemur -37.6104 1.36739 -12.4883
ltibia 35.1316
lfoot -12.6387 3.40441
ltoes -10.3519
293
root -1.25648 18.0797 5.24882 527.38 -71.5106 -508.61
lowerback 20.1276 0.528779 4.79288
upperback 4.78604 1.29666 0.207117
thorax -5.93826 0.412888 -2.80919
lowerneck 5.28732 11.5849 8.3227
upperneck -14.0074 14.5522 -16.4983
head -3.0807 7.75204 -6.79477
rclavicle -4.37326e-014 1.59028e-014
rhumerus -46.8291 -23.7064 -49.2918
rradius 87.7806
rwrist -56.1731
rhand -4.01292 -26.4674
rfingers 7.12502
rthumb 21.7415 -55.2664
lclavicle -4.37326e-014 1.59028e-014
lhumerus -58.7862 16.3364 46.258
lradius 39.8582
lwrist 2.65541
lhand -24.2726 15.9113
lfingers 7.12502
lthumb 2.21412 45.8796
rfemur -27.6557 13.4038 25.0366
rtibia 29.9277
rfoot -24.0594 7.51622
rtoes -20.8502
lfemur -38.1908 1.84788 -12.9787
ltibia 36.1448
lfoot -12.1291 1.80969
ltoes -11.5905
294
root -1.17405 18.0064 5.19811 526.436 -73.044 -508.257
lowerback 20.5522 -0.00797266 4.85896
upperback 4.95238 0.628533 0.376825
thorax -6.03572 0.0833896 -2.50364
lowerneck 5.33178 12.6008 8.77434
upperneck -14.2385 15.9264 -17.1846
head -2.87969 8.46176 -7.03675
rclavicle -1.74931e-014 5.00937e-014
rhumerus -46.8105 -23.3591 -49.4098
rradius 89.3292
rwrist -56.0223
rhand -5.35934 -27.8496
rfingers 7.12502
rthumb 20.4481 -56.7929
lclavicle -1.74931e-014 5.00937e-014
lhumerus -55.0611 15.4548 49.4758
lradius 44.4598
lwrist 5.91457
lhand -24.525 16.2867
lfingers 7.12502
lthumb 1.97033 46.2573
rfemur -29.7014 13.5489 25.1416
rtibia 30.5966
rfoot -22.2717 10.592
rtoes -19.8141
lfemur -38.9409 2.10433 -13.7525
ltibia 37.6905
lfoot -11.7635 0.258235
ltoes -12.0165
295
root -1.08136 17.8926 5.14778 524.734 -74.915 -507.433
lowerback 21.1557 -0.412556 5.27893
upperback 5.12192 0.207154 0.407555
thorax -6.19421 -0.133003 -2.60564
lowerneck 5.06246 13.1686 9.26189
upperneck -13.922 16.7939 -17.1276
head -2.59267 8.85721 -7.01205
rclavicle 1.23246e-014 -3.10104e-014
rhumerus -47.8879 -23.4375 -48.8594
rradius 91.2681
rwrist -56.3611
rhand -7.20361 -29.6244
rfingers 7.12502
rthumb 18.675 -58.7479
lclavicle 1.23246e-014 -3.10104e-014
lhumerus -50.6311 13.5251 52.7748
lradius 48.6665
lwrist 7.42649
lhand -25.8898 15.5217
lfingers 7.12502
lthumb 0.652166 45.5005
rfemur -31.3428 13.515 25.0335
rtibia 32.0308
rfoot -20.3784 12.7584
rtoes -14.6067
lfemur -39.7405 2.02931 -14.5952
ltibia 39.7035
lfoot -11.5563 -1.31958
ltoes -11.5975
296
root -0.974409 17.76 5.08918 521.746 -77.1741 -505.687
lowerback 22.0162 -0.901151 5.70117
upperback 5.29457 -0.301655 0.436153
thorax -6.49275 -0.39571 -2.68065
lowerneck 5.23575 13.4616 9.59056
upperneck -13.8012 17.3133 -16.6412
head -2.54044 9.07952 -6.90203
rclavicle 7.15625e-015 1.55052e-014
rhumerus -49.4315 -23.575 -47.9961
rradius 93.371
rwrist -56.7477
rhand -8.84716 -31.0699
rfingers 7.12502
rthumb 17.0936 -60.3379
lclavicle 7.15625e-015 1.55052e-014
lhumerus -46.2726 11.1537 55.6451
lradius 52.9808
lwrist 7.93953
lhand -26.607 14.1037
lfingers 7.12502
lthumb -0.0405089 44.0835
rfemur -31.8876 12.9641 25.0851
rtibia 34.2357
rfoot -17.9106 10.5218
rtoes -5.78213
lfemur -40.3919 1.77056 -15.5122
ltibia 41.929
lfoot -11.1851 -3.19787
ltoes -9.23735
297
root -0.847171 17.609 5.01252 519.072 -79.6789 -504.477
lowerback 23.0463 -1.40471 5.43781
upperback 5.48991 -0.969532 0.453093
thorax -6.86621 -0.726504 -2.31855
lowerneck 5.78663 13.6134 9.77988
upperneck -14.0864 17.6089 -16.2125
head -2.70607 9.21219 -6.85817
rclavicle -5.1684e-014 2.90226e-014
rhumerus -50.8782 -23.7049 -47.1344
rradius 95.4276
rwrist -56.8159
rhand -9.99299 -32.2477
rfingers 7.12502
rthumb 15.9904 -61.6078
lclavicle -5.1684e-014 2.90226e-014
lhumerus -42.0098 8.78231 57.9822
lradius 57.4798
lwrist 8.28964
lhand -26.2331 13.3963
lfingers 7.12502
lthumb 0.3206 43.3758
rfemur -31.4033 12.8956 24.4934
rtibia 36.9499
rfoot -20.962 5.79828
rtoes -11.1343
lfemur -41.0228 1.63214 -16.8307
ltibia 44.3093
lfoot -10.4611 -5.20864
ltoes -6.47893
298
root -0.715569 17.4769 4.92684 515.811 -82.2157 -502.788
lowerback 24.0702 -1.85261 4.92405
upperback 5.73463 -1.63605 0.447729
thorax -7.16433 -1.04918 -1.8207
lowerneck 6.47273 13.6716 10.1544
upperneck -14.4937 17.7631 -16.1721
head -2.8892 9.29124 -6.97614
rclavicle -1.19271e-015 2.18663e-014
rhumerus -52.42 -23.8624 -46.2514
rradius 97.5332
rwrist -56.6315
rhand -11.0316 -33.5623
rfingers 7.12502
rthumb 14.9901 -62.9998
lclavicle -1.19271e-015 2.18663e-014
lhumerus -37.6387 6.16182 59.9614
lradius 61.9573
lwrist 8.32858
lhand -25.6669 13.4083
lfingers 7.12502
lthumb 0.867495 43.3863
rfemur -31.5965 12.1534 24.0351
rtibia 39.7776
rfoot -21.6545 3.57871
rtoes -11.6311
lfemur -41.4363 1.6063 -18.2157
ltibia 46.6645
lfoot -9.77028 -7.15946
ltoes -6.41613
299
root -0.590191 17.3576 4.8423 506.694 -84.19 -495.363
lowerback 25.0998 -2.2997 4.83759
upperback 6.10109 -2.20942 0.577581
thorax -7.31077 -1.33326 -1.43242
lowerneck 7.19333 13.7705 10.6686
upperneck -14.9185 17.9605 -16.5073
head -3.02269 9.40988 -7.22346
rclavicle 1.31198e-014 -2.98177e-014
rhumerus -53.7025 -23.9407 -45.5563
rradius 99.5134
rwrist -56.2853
rhand -12.1158 -35.0207
rfingers 7.12502
rthumb 13.9454 -64.5331
lclavicle 1.31198e-014 -2.98177e-014
lhumerus -33.3162 3.57689 61.534
lradius 66.4583
lwrist 7.68834
lhand -25.053 13.7579
lfingers 7.12502
lthumb 1.46039 43.7327
rfemur -31.3026 10.9916 24.3789
rtibia 42.12
rfoot -22.025 1.98219
rtoes -12.0551
lfemur -41.6103 1.75486 -18.8615
ltibia 49.2276
lfoot -9.92684 -9.33289
ltoes -10.5108
300
root -0.472787 17.2551 4.76398 488.437 -85.2875 -478.914
lowerback 26.2637 -2.74718 5.18132
upperback 6.58323 -2.67289 0.837486
thorax -7.38166 -1.57481 -1.16532
lowerneck 7.6439 13.9507 11.2272
upperneck -15.1421 18.2503 -17.0585
head -3.00873 9.57994 -7.49714
rclavicle 2.78299e-015 -1.66979e-014
rhumerus -54.4467 -24.0569 -45.1036
rradius 101.088
rwrist -56.012
rhand -13.0746 -36.3838
rfingers 7.12502
rthumb 13.0212 -65.9574
lclavicle 2.78299e-015 -1.66979e-014
lhumerus -28.9578 1.06949 62.6574
lradius 70.6506
lwrist 6.39449
lhand -25.0779 13.4613
lfingers 7.12502
lthumb 1.43635 43.4362
rfemur -30.4706 9.6296 25.4397
rtibia 43.8931
rfoot -22.001 0.432074
rtoes -12.7735
lfemur -41.419 2.12303 -18.7858
ltibia 51.7325
lfoot -11.089 -11.7407
ltoes -17.7783
301
root -0.405515 17.1771 4.72443 463.906 -83.5481 -454.161
lowerback 25.5508 -3.4412 8.1974
upperback 6.52595 -2.78879 1.47306
thorax -7.16184 -1.66108 -2.16452
lowerneck 8.28882 14.0895 12.4666
upperneck -15.22 18.5447 -18.276
head -2.83532 9.77658 -8.05781
rclavicle -2.94201e-014 1.45113e-014
rhumerus -55.1163 -24.3351 -44.7493
rradius 102.269
rwrist -55.7503
rhand -13.6953 -37.2862
rfingers 7.12502
rthumb 12.4229 -66.897
lclavicle -2.94201e-014 1.45113e-014
lhumerus -24.6684 -1.49386 63.2279
lradius 74.5944
lwrist 4.9188
lhand -25.5948 13.1571
lfingers 7.12502
lthumb 0.937136 43.1348
rfemur -31.2783 8.37916 28.4796
rtibia 44.9822
rfoot -22.2595 -0.582485
rtoes -13.782
lfemur -43.2937 3.02671 -16.4486
ltibia 54.5385
lfoot -13.5003 -13.686
ltoes -29.1131
302
root -0.342795 17.149 4.70992 449.293 -83.9579 -439.377
lowerback 25.0481 -4.00054 8.35302
upperback 6.37519 -3.47889 1.47141
thorax -7.15469 -1.9815 -2.0507
lowerneck 8.7276 14.321 12.5552
upperneck -15.2125 18.9619 -17.9529
head -2.87242 9.97278 -7.99493
rclavicle -2.68359e-014 -8.74653e-015
rhumerus -55.0869 -24.2718 -44.8598
rradius 103.006
rwrist -55.2526
rhand -14.2126 -37.6281
rfingers 7.12502
rthumb 11.9241 -67.2685
lclavicle -2.68359e-014 -8.74653e-015
lhumerus -20.908 -3.1843 63.4758
lradius 78.5716
lwrist 4.21218
lhand -25.992 13.0277
lfingers 7.12502
lthumb 0.553496 43.0067
rfemur -31.9993 6.46034 28.2443
rtibia 45.7349
rfoot -22.5651 -0.572017
rtoes -13.5923
lfemur -44.38 3.28945 -17.4183
ltibia 57.1123
lfoot -15.1519 -13.7495
ltoes -33.3469
303
root -0.268559 17.1286 4.6739 436.593 -83.9401 -426.342
lowerback 24.599 -4.40704 8.09103
upperback 6.24397 -4.07545 1.48939
thorax -7.12056 -2.25341 -1.71301
lowerneck 9.36939 14.5404 13.3185
upperneck -15.3638 19.3757 -18.5678
head -2.80879 10.2105 -8.31671
rclavicle -1.76918e-014 1.66979e-014
rhumerus -54.5606 -24.4126 -45.5055
rradius 103.239
rwrist -54.6105
rhand -14.5673 -37.7766
rfingers 7.12502
rthumb 11.5821 -67.4365
lclavicle -1.76918e-014 1.66979e-014
lhumerus -16.9119 -4.63026 63.4635
lradius 81.987
lwrist 4.85969
lhand -26.52 11.5933
lfingers 7.12502
lthumb 0.0435323 41.573
rfemur -32.7936 5.12919 28.1062
rtibia 46.0545
rfoot -22.4985 -0.594163
rtoes -13.5338
lfemur -45.3901 3.68557 -18.1785
ltibia 59.7774
lfoot -15.2133 -13.5361
ltoes -27.9696
304
root -0.226452 17.1551 4.63575 431.526 -84.225 -421.379
lowerback 24.5062 -4.39651 7.2105
upperback 6.34338 -4.29811 1.37147
thorax -6.94274 -2.34341 -1.28892
lowerneck 9.27811 14.847 13.3558
upperneck -15.1217 19.8835 -17.9295
head -2.71938 10.4115 -8.08137
rclavicle 3.61788e-014 -3.45885e-014
rhumerus -53.6378 -24.8673 -46.4659
rradius 102.87
rwrist -53.9281
rhand -14.5966 -37.7561
rfingers 7.12502
rthumb 11.5538 -67.4177
lclavicle 3.61788e-014 -3.45885e-014
lhumerus -12.5484 -6.00401 63.3219
lradius 84.6072
lwrist 5.89503
lhand -26.9234 10.1238
lfingers 7.12502
lthumb -0.346117 40.1033
rfemur -32.8861 4.54132 27.7988
rtibia 46.2239
rfoot -22.8124 -1.04064
rtoes -15.8323
lfemur -45.1487 4.81954 -19.0607
ltibia 62.3291
lfoot -16.7079 -11.5543
ltoes -27.1259
